<mxfile host="app.diagrams.net" agent="Mozilla/5.0 (Windows NT 10.0; Win64; x64) AppleWebKit/537.36 (KHTML, like Gecko) Chrome/131.0.0.0 Safari/537.36 Edg/131.0.0.0" version="25.0.1">
  <diagram name="หน้า-1" id="z69V8fV8AXmcKIXTxAnc">
    <mxGraphModel dx="1754" dy="1955" grid="1" gridSize="10" guides="1" tooltips="1" connect="1" arrows="1" fold="1" page="1" pageScale="1" pageWidth="827" pageHeight="1169" math="0" shadow="0">
      <root>
        <mxCell id="0" />
        <mxCell id="1" parent="0" />
        <mxCell id="aLgxuteSyLdQuNv1wMar-7" value="" style="edgeStyle=orthogonalEdgeStyle;rounded=0;orthogonalLoop=1;jettySize=auto;html=1;" edge="1" parent="1" source="aLgxuteSyLdQuNv1wMar-1" target="aLgxuteSyLdQuNv1wMar-2">
          <mxGeometry relative="1" as="geometry" />
        </mxCell>
        <mxCell id="aLgxuteSyLdQuNv1wMar-1" value="Start" style="ellipse;whiteSpace=wrap;html=1;" vertex="1" parent="1">
          <mxGeometry x="353" y="-1140" width="120" height="80" as="geometry" />
        </mxCell>
        <mxCell id="aLgxuteSyLdQuNv1wMar-6" value="" style="edgeStyle=orthogonalEdgeStyle;rounded=0;orthogonalLoop=1;jettySize=auto;html=1;" edge="1" parent="1" source="aLgxuteSyLdQuNv1wMar-2" target="aLgxuteSyLdQuNv1wMar-5">
          <mxGeometry relative="1" as="geometry" />
        </mxCell>
        <mxCell id="aLgxuteSyLdQuNv1wMar-2" value="รับข้อมูลเลขUser&amp;nbsp;" style="shape=parallelogram;perimeter=parallelogramPerimeter;whiteSpace=wrap;html=1;fixedSize=1;" vertex="1" parent="1">
          <mxGeometry x="318" y="-1000" width="190" height="60" as="geometry" />
        </mxCell>
        <mxCell id="aLgxuteSyLdQuNv1wMar-10" value="" style="edgeStyle=orthogonalEdgeStyle;rounded=0;orthogonalLoop=1;jettySize=auto;html=1;" edge="1" parent="1" source="aLgxuteSyLdQuNv1wMar-11" target="aLgxuteSyLdQuNv1wMar-9">
          <mxGeometry relative="1" as="geometry" />
        </mxCell>
        <mxCell id="aLgxuteSyLdQuNv1wMar-19" value="" style="edgeStyle=orthogonalEdgeStyle;rounded=0;orthogonalLoop=1;jettySize=auto;html=1;" edge="1" parent="1" source="aLgxuteSyLdQuNv1wMar-3" target="aLgxuteSyLdQuNv1wMar-18">
          <mxGeometry relative="1" as="geometry" />
        </mxCell>
        <mxCell id="aLgxuteSyLdQuNv1wMar-3" value="&amp;nbsp;&lt;div&gt;Temp เท่ากับ&lt;/div&gt;&lt;div&gt;1 ไหม&lt;/div&gt;" style="rhombus;whiteSpace=wrap;html=1;" vertex="1" parent="1">
          <mxGeometry x="338" y="-810" width="150" height="100" as="geometry" />
        </mxCell>
        <mxCell id="aLgxuteSyLdQuNv1wMar-8" value="" style="edgeStyle=orthogonalEdgeStyle;rounded=0;orthogonalLoop=1;jettySize=auto;html=1;" edge="1" parent="1" source="aLgxuteSyLdQuNv1wMar-5" target="aLgxuteSyLdQuNv1wMar-3">
          <mxGeometry relative="1" as="geometry" />
        </mxCell>
        <mxCell id="aLgxuteSyLdQuNv1wMar-5" value="" style="ellipse;whiteSpace=wrap;html=1;aspect=fixed;" vertex="1" parent="1">
          <mxGeometry x="400.5" y="-880" width="25" height="25" as="geometry" />
        </mxCell>
        <mxCell id="aLgxuteSyLdQuNv1wMar-14" value="" style="edgeStyle=orthogonalEdgeStyle;rounded=0;orthogonalLoop=1;jettySize=auto;html=1;" edge="1" parent="1" source="aLgxuteSyLdQuNv1wMar-9" target="aLgxuteSyLdQuNv1wMar-13">
          <mxGeometry relative="1" as="geometry" />
        </mxCell>
        <mxCell id="aLgxuteSyLdQuNv1wMar-9" value="คูณสะสมค่า" style="rounded=0;whiteSpace=wrap;html=1;" vertex="1" parent="1">
          <mxGeometry x="353" y="-570" width="120" height="60" as="geometry" />
        </mxCell>
        <mxCell id="aLgxuteSyLdQuNv1wMar-12" value="" style="edgeStyle=orthogonalEdgeStyle;rounded=0;orthogonalLoop=1;jettySize=auto;html=1;" edge="1" parent="1" source="aLgxuteSyLdQuNv1wMar-3" target="aLgxuteSyLdQuNv1wMar-11">
          <mxGeometry relative="1" as="geometry">
            <mxPoint x="413" y="-710" as="sourcePoint" />
            <mxPoint x="413" y="-570" as="targetPoint" />
          </mxGeometry>
        </mxCell>
        <mxCell id="aLgxuteSyLdQuNv1wMar-11" value="แสดงวิธีการคูณ" style="shape=parallelogram;perimeter=parallelogramPerimeter;whiteSpace=wrap;html=1;fixedSize=1;" vertex="1" parent="1">
          <mxGeometry x="318" y="-680" width="190" height="60" as="geometry" />
        </mxCell>
        <mxCell id="aLgxuteSyLdQuNv1wMar-15" style="edgeStyle=orthogonalEdgeStyle;rounded=0;orthogonalLoop=1;jettySize=auto;html=1;entryX=0;entryY=0.5;entryDx=0;entryDy=0;" edge="1" parent="1" source="aLgxuteSyLdQuNv1wMar-13" target="aLgxuteSyLdQuNv1wMar-5">
          <mxGeometry relative="1" as="geometry">
            <Array as="points">
              <mxPoint x="280" y="-440" />
              <mxPoint x="280" y="-868" />
            </Array>
          </mxGeometry>
        </mxCell>
        <mxCell id="aLgxuteSyLdQuNv1wMar-13" value="Temp - 1" style="rounded=0;whiteSpace=wrap;html=1;" vertex="1" parent="1">
          <mxGeometry x="353" y="-470" width="120" height="60" as="geometry" />
        </mxCell>
        <mxCell id="aLgxuteSyLdQuNv1wMar-21" style="edgeStyle=orthogonalEdgeStyle;rounded=0;orthogonalLoop=1;jettySize=auto;html=1;entryX=0.5;entryY=0;entryDx=0;entryDy=0;" edge="1" parent="1" source="aLgxuteSyLdQuNv1wMar-18" target="aLgxuteSyLdQuNv1wMar-20">
          <mxGeometry relative="1" as="geometry">
            <Array as="points">
              <mxPoint x="600" y="-380" />
              <mxPoint x="413" y="-380" />
            </Array>
          </mxGeometry>
        </mxCell>
        <mxCell id="aLgxuteSyLdQuNv1wMar-18" value="แสดงผลรวม" style="shape=parallelogram;perimeter=parallelogramPerimeter;whiteSpace=wrap;html=1;fixedSize=1;" vertex="1" parent="1">
          <mxGeometry x="508" y="-790" width="190" height="60" as="geometry" />
        </mxCell>
        <mxCell id="aLgxuteSyLdQuNv1wMar-20" value="END" style="ellipse;whiteSpace=wrap;html=1;" vertex="1" parent="1">
          <mxGeometry x="354" y="-340" width="120" height="80" as="geometry" />
        </mxCell>
      </root>
    </mxGraphModel>
  </diagram>
</mxfile>
